<?xml version="1.0" encoding="utf-8"?>
<!-- Generator: Adobe Illustrator 23.1.0, SVG Export Plug-In . SVG Version: 6.00 Build 0)  -->
<svg version="1.1" id="Layer_1" xmlns="http://www.w3.org/2000/svg" xmlns:xlink="http://www.w3.org/1999/xlink" x="0px" y="0px"
	 viewBox="0 0 512 512" style="enable-background:new 0 0 512 512;" xml:space="preserve">
<style type="text/css">
	.st0{fill:#FFCC00;}
</style>
<g>
	<g>
		<path class="st0" d="M437,75C388.7,26.6,324.4,0,256,0C196.7,0,138.9,20.7,93.2,58.4c-3.7,3-4.2,8.5-1.2,12.1
			c3,3.7,8.5,4.2,12.1,1.2c42.6-35.1,96.5-54.5,151.8-54.5c131.7,0,238.8,107.1,238.8,238.8c0,59.1-21.8,115.8-61.3,159.7
			c-3.2,3.5-2.9,9,0.6,12.2c1.6,1.5,3.7,2.2,5.8,2.2c2.4,0,4.7-1,6.4-2.9C488.7,380.2,512,319.4,512,256
			C512,187.6,485.4,123.3,437,75z"/>
	</g>
</g>
<g>
	<g>
		<path class="st0" d="M421.7,439.9c-3.1-3.6-8.5-4.1-12.1-1.1c-42.9,36.1-97.4,55.9-153.5,55.9C124.3,494.8,17.2,387.7,17.2,256
			c0-59.9,22.3-117.2,62.8-161.4c3.2-3.5,3-9-0.5-12.2c-3.5-3.2-9-3-12.2,0.5C23.9,130.3,0,191.7,0,256c0,68.4,26.6,132.7,75,181
			c48.4,48.4,112.6,75,181,75c60.2,0,118.6-21.3,164.6-60C424.3,449,424.7,443.5,421.7,439.9z"/>
	</g>
</g>
<g>
	<g>
		<path class="st0" d="M289.4,189.1h-66.7c-4.8,0-8.6,3.9-8.6,8.6v225.8c0,4.8,3.9,8.6,8.6,8.6h66.7c4.8,0,8.6-3.9,8.6-8.6V197.7
			C298,192.9,294.1,189.1,289.4,189.1z M280.8,414.9h-49.5V206.3h49.5V414.9z"/>
	</g>
</g>
<g>
	<g>
		<path class="st0" d="M256,78.7c-26.4,0-47.9,21.5-47.9,47.9c0,26.4,21.5,47.9,47.9,47.9s47.9-21.5,47.9-47.9
			C303.9,100.2,282.4,78.7,256,78.7z M256,157.3c-16.9,0-30.7-13.8-30.7-30.7s13.8-30.7,30.7-30.7c16.9,0,30.7,13.8,30.7,30.7
			S272.9,157.3,256,157.3z"/>
	</g>
</g>
</svg>
