<?xml version="1.0" encoding="utf-8"?>
<!-- Generator: Adobe Illustrator 23.1.0, SVG Export Plug-In . SVG Version: 6.00 Build 0)  -->
<svg version="1.1" id="Слой_1" xmlns="http://www.w3.org/2000/svg" xmlns:xlink="http://www.w3.org/1999/xlink" x="0px" y="0px"
	 viewBox="0 0 32 32" style="enable-background:new 0 0 32 32;" xml:space="preserve">
<style type="text/css">
	.st0{fill:#50945F;}
	.st1{fill:#FFFFFF;}
</style>
<circle class="st0" cx="16" cy="16" r="16"/>
<path class="st1" d="M25.99,6.73c-0.01-0.07-0.03-0.14-0.05-0.21c0,0,0,0,0-0.01c0,0,0,0,0,0c-0.03-0.07-0.07-0.13-0.11-0.19
	c-0.01-0.01-0.02-0.03-0.03-0.04c-0.05-0.05-0.1-0.1-0.16-0.14c0,0,0,0-0.01,0c-0.06-0.04-0.12-0.07-0.19-0.09
	c-0.02-0.01-0.03-0.01-0.05-0.02C25.32,6.01,25.24,6,25.17,6h-5.83c-0.46,0-0.83,0.37-0.83,0.83c0,0.46,0.37,0.83,0.83,0.83h3.82
	l-4.97,4.97C16.85,11.58,15.22,11,13.5,11C9.36,11,6,14.36,6,18.5S9.36,26,13.5,26s7.5-3.36,7.5-7.5c0-1.72-0.58-3.35-1.64-4.68
	l4.97-4.97v3.82c0,0.46,0.37,0.83,0.83,0.83c0.46,0,0.83-0.37,0.83-0.83V6.83c0-0.02,0-0.03-0.01-0.05
	C25.99,6.76,25.99,6.74,25.99,6.73z M13.5,24.33c-3.22,0-5.83-2.62-5.83-5.83s2.62-5.83,5.83-5.83c1.56,0,3.02,0.61,4.13,1.7
	c1.1,1.1,1.71,2.57,1.71,4.13C19.33,21.72,16.72,24.33,13.5,24.33z"/>
</svg>
