<?xml version="1.0" encoding="utf-8"?>
<!-- Generator: Adobe Illustrator 23.1.0, SVG Export Plug-In . SVG Version: 6.00 Build 0)  -->
<svg version="1.1" id="Слой_1" xmlns="http://www.w3.org/2000/svg" xmlns:xlink="http://www.w3.org/1999/xlink" x="0px" y="0px"
	 viewBox="0 0 32 32" style="enable-background:new 0 0 32 32;" xml:space="preserve">
<style type="text/css">
	.st0{fill:#50945F;}
	.st1{fill:#FFFFFF;stroke:#FFFFFF;stroke-width:0.25;stroke-miterlimit:10;}
</style>
<circle class="st0" cx="16" cy="16" r="16"/>
<path class="st1" d="M25.7,8.15h-1V7.81c0-0.18-0.15-0.33-0.33-0.33h-2.33V7.15c0-0.55-0.45-1-1-1s-1,0.45-1,1v0.33h-0.67V7.15
	c0-0.55-0.45-1-1-1s-1,0.45-1,1v0.33h-4V7.15c0-0.55-0.45-1-1-1s-1,0.45-1,1v0.33H10.7V7.15c0-0.55-0.45-1-1-1s-1,0.45-1,1v0.33
	H6.37c-0.18,0-0.33,0.15-0.33,0.33v16.67c0,0.18,0.15,0.33,0.33,0.33H6.7v1c0,0.18,0.15,0.33,0.33,0.33H25.7
	c0.18,0,0.33-0.15,0.33-0.33V8.48C26.04,8.3,25.89,8.15,25.7,8.15z M6.7,24.15v-12h17.33v12H6.7z M20.7,7.15
	c0-0.18,0.15-0.33,0.33-0.33s0.33,0.15,0.33,0.33v0.33h-0.67V7.15H20.7z M18.04,7.15c0-0.18,0.15-0.33,0.33-0.33
	s0.33,0.15,0.33,0.33v0.33h-0.67V7.15H18.04z M12.04,7.15c0-0.18,0.15-0.33,0.33-0.33s0.33,0.15,0.33,0.33v0.33h-0.67V7.15H12.04z
	 M9.37,7.15c0-0.18,0.15-0.33,0.33-0.33s0.33,0.15,0.33,0.33v0.33H9.37V7.15z M8.7,8.15v0.33c0,0.55,0.45,1,1,1
	c0.18,0,0.33-0.15,0.33-0.33S9.88,8.82,9.7,8.82S9.37,8.67,9.37,8.49V8.15h2v0.33c0,0.55,0.45,1,1,1c0.18,0,0.33-0.15,0.33-0.33
	s-0.15-0.33-0.33-0.33s-0.33-0.15-0.33-0.33V8.15h5.33v0.33c0,0.55,0.45,1,1,1c0.18,0,0.33-0.15,0.33-0.33s-0.15-0.33-0.33-0.33
	s-0.33-0.15-0.33-0.33V8.15h2v0.33c0,0.55,0.45,1,1,1c0.18,0,0.33-0.15,0.33-0.33s-0.15-0.33-0.33-0.33s-0.33-0.15-0.33-0.33V8.15
	h3.33v3.33H6.7V8.15H8.7z M25.37,25.48h-18v-0.67h17c0.18,0,0.33-0.15,0.33-0.33V8.81h0.67V25.48z"/>
<path class="st1" d="M16.7,21.81c0.18,0,0.33-0.15,0.33-0.33v-6.67c0-0.18-0.15-0.33-0.33-0.33c-0.07,0-0.14,0.02-0.19,0.06
	l-2.67,1.91c-0.15,0.11-0.18,0.32-0.08,0.47c0.1,0.15,0.32,0.18,0.47,0.08l2.14-1.53v6.02C16.37,21.67,16.52,21.81,16.7,21.81z"/>
</svg>
