<?xml version="1.0" encoding="utf-8"?>
<!-- Generator: Adobe Illustrator 23.1.0, SVG Export Plug-In . SVG Version: 6.00 Build 0)  -->
<svg version="1.1" id="Layer_1" xmlns="http://www.w3.org/2000/svg" xmlns:xlink="http://www.w3.org/1999/xlink" x="0px" y="0px"
	 viewBox="0 0 469.3 469.3" style="enable-background:new 0 0 469.3 469.3;" xml:space="preserve">
<style type="text/css">
	.st0{fill:#50945F;}
</style>
<g>
	<g>
		<path class="st0" d="M456.8,76.2l-64-64.1c-16.1-16.1-44.2-16.2-60.4,0L45.8,301.7c-1.3,1.3-2.2,2.9-2.7,4.6L0.4,455.7
			c-1.1,3.7,0,7.7,2.7,10.5c2,2,4.8,3.1,7.5,3.1c1,0,2-0.1,2.9-0.4l149.3-42.7c1.7-0.5,3.3-1.4,4.6-2.7l289.3-287
			c8.1-8.1,12.5-18.8,12.5-30.2S464.9,84.2,456.8,76.2z M286,89.7l39.3,39.3l-205,205l-14.7-29.4c-1.8-3.6-5.5-5.9-9.5-5.9H78.9
			L286,89.7z M26.2,443.1l13.9-48.6l34.7,34.7L26.2,443.1z M149.3,408l-51,14.6L46.8,371l14.6-51h28l18.4,36.8
			c1,2.1,2.7,3.7,4.8,4.8l36.8,18.4L149.3,408L149.3,408z M170.7,390.4v-17.1c0-4-2.3-7.7-5.9-9.5l-29.4-14.7l205-205l39.3,39.3
			L170.7,390.4z M441.8,121.7l-47,46.6L301,74.6l46.6-47c8.1-8.1,22.1-8.1,30.2,0l64,64c4,4,6.3,9.4,6.3,15.1
			S445.8,117.7,441.8,121.7z"/>
	</g>
</g>
</svg>
