<?xml version="1.0" encoding="utf-8"?>
<!-- Generator: Adobe Illustrator 23.1.0, SVG Export Plug-In . SVG Version: 6.00 Build 0)  -->
<svg version="1.1" id="Слой_1" xmlns="http://www.w3.org/2000/svg" xmlns:xlink="http://www.w3.org/1999/xlink" x="0px" y="0px"
	 viewBox="0 0 32 32" style="enable-background:new 0 0 32 32;" xml:space="preserve">
<style type="text/css">
	.st0{fill:#4A548E;}
	.st1{fill:#FFFFFF;}
</style>
<circle class="st0" cx="16" cy="16" r="16"/>
<g>
	<g>
		<path class="st1" d="M8.58,23.38c0.16,0.38,0.53,0.63,0.94,0.63h12.95c0.56,0,1.02-0.46,1.02-1.02v-3.07
			c0-0.56-0.46-1.02-1.02-1.02s-1.02,0.46-1.02,1.02v2.05h-9.47l4.68-4.72c0.38-0.38,0.4-0.98,0.05-1.38l-4.98-5.83h9.71v0.68
			c0,0.56,0.46,1.02,1.02,1.02s1.02-0.46,1.02-1.02v-1.7c0-0.56-0.46-1.02-1.02-1.02H9.52c-0.4,0-0.76,0.23-0.93,0.59
			C8.43,8.95,8.49,9.37,8.74,9.68l5.81,6.8L8.8,22.27C8.51,22.56,8.42,23,8.58,23.38z"/>
	</g>
</g>
</svg>
