<?xml version="1.0" encoding="utf-8"?>
<!-- Generator: Adobe Illustrator 23.1.0, SVG Export Plug-In . SVG Version: 6.00 Build 0)  -->
<svg version="1.1" id="Слой_1" xmlns="http://www.w3.org/2000/svg" xmlns:xlink="http://www.w3.org/1999/xlink" x="0px" y="0px"
	 viewBox="0 0 32 32" style="enable-background:new 0 0 32 32;" xml:space="preserve">
<style type="text/css">
	.st0{fill:#4A548E;}
	.st1{fill:#FFFFFF;}
</style>
<circle class="st0" cx="16" cy="16" r="16"/>
<g>
	<path class="st1" d="M12.06,12.41c0.7,0,1.23-0.54,1.23-1.23c0-0.13,0-0.25,0.03-0.38c0.19-1.36,1.36-2.34,2.72-2.31
		c1.42,0.03,2.56,1.14,2.65,2.56c0.03,0.76-0.22,1.45-0.73,1.99c-0.51,0.54-1.2,0.82-1.96,0.82c-0.7,0-1.23,0.54-1.23,1.23v4.11
		c0,0.7,0.54,1.23,1.23,1.23c0.7,0,1.23-0.54,1.23-1.23v-3.03c0.95-0.22,1.83-0.73,2.53-1.45c0.98-1.04,1.48-2.4,1.39-3.82
		C21.03,8.21,18.82,6.06,16.1,6c-2.62-0.06-4.87,1.86-5.21,4.45c-0.03,0.22-0.06,0.47-0.06,0.73C10.83,11.85,11.4,12.41,12.06,12.41
		L12.06,12.41z"/>
	<circle class="st1" cx="16.01" cy="24.77" r="1.23"/>
</g>
</svg>
