<?xml version="1.0" encoding="utf-8"?>
<!-- Generator: Adobe Illustrator 23.1.0, SVG Export Plug-In . SVG Version: 6.00 Build 0)  -->
<svg version="1.1" id="Слой_1" xmlns="http://www.w3.org/2000/svg" xmlns:xlink="http://www.w3.org/1999/xlink" x="0px" y="0px"
	 viewBox="0 0 32 32" style="enable-background:new 0 0 32 32;" xml:space="preserve">
<style type="text/css">
	.st0{fill:#8D4A46;}
	.st1{fill:#FFFFFF;}
</style>
<circle class="st0" cx="16" cy="16" r="16"/>
<g>
	<g>
		<path class="st1" d="M20.7,17.33c2.59-2.59,2.59-6.8,0-9.39c-2.59-2.59-6.81-2.59-9.4,0c-2.59,2.59-2.59,6.8,0,9.39
			c1.1,1.1,2.48,1.73,3.92,1.9v2.22h-1.56c-0.43,0-0.78,0.35-0.78,0.78c0,0.43,0.35,0.78,0.78,0.78h1.56v2.2
			c0,0.43,0.35,0.78,0.78,0.78c0.43,0,0.78-0.35,0.78-0.78v-2.2h1.56c0.43,0,0.78-0.35,0.78-0.78c0-0.43-0.35-0.78-0.78-0.78h-1.56
			v-2.22C18.21,19.06,19.6,18.43,20.7,17.33z M12.41,16.23c-1.98-1.98-1.98-5.2,0-7.18c1.98-1.98,5.2-1.98,7.18,0
			c1.98,1.98,1.98,5.2,0,7.18C17.61,18.21,14.39,18.21,12.41,16.23z"/>
	</g>
</g>
</svg>
