<?xml version="1.0" encoding="utf-8"?>
<!-- Generator: Adobe Illustrator 23.1.0, SVG Export Plug-In . SVG Version: 6.00 Build 0)  -->
<svg version="1.1" id="Слой_1" xmlns="http://www.w3.org/2000/svg" xmlns:xlink="http://www.w3.org/1999/xlink" x="0px" y="0px"
	 viewBox="0 0 32 32" style="enable-background:new 0 0 32 32;" xml:space="preserve">
<style type="text/css">
	.st0{fill:#8D4A46;}
	.st1{fill:#FFFFFF;stroke:#FFFFFF;stroke-width:0.25;stroke-miterlimit:10;}
</style>
<circle class="st0" cx="16" cy="16" r="16"/>
<path class="st1" d="M25.67,8h-1V7.67c0-0.18-0.15-0.33-0.33-0.33H22V7c0-0.55-0.45-1-1-1s-1,0.45-1,1v0.33h-0.67V7
	c0-0.55-0.45-1-1-1s-1,0.45-1,1v0.33h-4V7c0-0.55-0.45-1-1-1s-1,0.45-1,1v0.33h-0.67V7c0-0.55-0.45-1-1-1s-1,0.45-1,1v0.33H6.33
	C6.15,7.33,6,7.48,6,7.67v16.67c0,0.18,0.15,0.33,0.33,0.33h0.33v1C6.67,25.85,6.82,26,7,26h18.67c0.18,0,0.33-0.15,0.33-0.33V8.33
	C26,8.15,25.85,8,25.67,8z M6.67,24V12H24v12H6.67z M20.67,7c0-0.18,0.15-0.33,0.33-0.33S21.33,6.82,21.33,7v0.33h-0.67V7H20.67z
	 M18,7c0-0.18,0.15-0.33,0.33-0.33S18.66,6.82,18.66,7v0.33H18V7z M12,7c0-0.18,0.15-0.33,0.33-0.33S12.66,6.82,12.66,7v0.33H12V7z
	 M9.33,7c0-0.18,0.15-0.33,0.33-0.33C9.85,6.67,10,6.82,10,7v0.33H9.33V7z M8.67,8v0.33c0,0.55,0.45,1,1,1C9.85,9.33,10,9.18,10,9
	S9.85,8.67,9.67,8.67S9.34,8.52,9.34,8.34V8h2v0.33c0,0.55,0.45,1,1,1c0.18,0,0.33-0.15,0.33-0.33s-0.15-0.33-0.33-0.33
	C12.15,8.67,12,8.52,12,8.33V8h5.33v0.33c0,0.55,0.45,1,1,1c0.18,0,0.33-0.15,0.33-0.33s-0.15-0.33-0.33-0.33S18,8.52,18,8.33V8h2
	v0.33c0,0.55,0.45,1,1,1c0.18,0,0.33-0.15,0.33-0.33S21.18,8.67,21,8.67s-0.33-0.15-0.33-0.33V8H24v3.33H6.67V8H8.67z M25.33,25.33
	h-18v-0.67h17c0.18,0,0.33-0.15,0.33-0.33V8.67h0.67V25.33z"/>
<path class="st1" d="M12.67,19.67c0-0.67-0.34-1.3-0.9-1.67c0.92-0.61,1.17-1.85,0.56-2.77s-1.85-1.17-2.77-0.56
	c-0.56,0.37-0.9,1-0.9,1.67c0,0.18,0.15,0.33,0.33,0.33s0.33-0.15,0.33-0.33c0-0.74,0.6-1.33,1.33-1.33S12,15.6,12,16.33
	c0,0.74-0.6,1.33-1.33,1.33c-0.18,0-0.33,0.15-0.33,0.33s0.15,0.33,0.33,0.33c0.74,0,1.33,0.6,1.33,1.33C12,20.4,11.4,21,10.67,21
	s-1.33-0.6-1.33-1.33c0-0.18-0.15-0.33-0.33-0.33s-0.33,0.15-0.33,0.33c0,1.1,0.9,2,2,2S12.67,20.77,12.67,19.67z"/>
<path class="st1" d="M20,17.67h-1V15h2.33c0.18,0,0.33-0.15,0.33-0.33s-0.15-0.33-0.33-0.33h-2.67c-0.18,0-0.33,0.15-0.33,0.33V18
	c0,0.18,0.15,0.33,0.33,0.33H20c0.74,0,1.33,0.6,1.33,1.33c0,0.74-0.6,1.33-1.33,1.33s-1.33-0.6-1.33-1.33
	c0-0.18-0.15-0.33-0.33-0.33s-0.33,0.15-0.33,0.33c0,1.1,0.9,2,2,2s2-0.9,2-2C22,18.56,21.1,17.67,20,17.67z"/>
<path class="st1" d="M15.33,15c0.74,0,1.33,0.6,1.33,1.33c0,0.18,0.15,0.33,0.33,0.33s0.33-0.15,0.33-0.33c0-1.1-0.9-2-2-2
	s-2,0.9-2,2v3.33c0,1.11,0.89,2,2,2.01s2-0.89,2.01-2c0-1.11-0.89-2-2-2.01c-0.49,0-0.97,0.18-1.34,0.51v-1.84
	C14,15.6,14.6,15,15.33,15z M15.33,18.33c0.74,0,1.33,0.6,1.33,1.33c0,0.74-0.6,1.33-1.33,1.33C14.6,21,14,20.4,14,19.67
	C14,18.93,14.6,18.33,15.33,18.33z"/>
</svg>
